<svg width="245" height="43" viewBox="0 0 245 43" fill="none" xmlns="http://www.w3.org/2000/svg">
<path fill-rule="evenodd" clip-rule="evenodd" d="M185.092 37.2292H186.478L185.791 35.1338L185.092 37.2292Z" fill="black"/>
<path fill-rule="evenodd" clip-rule="evenodd" d="M97.807 34.4131H96.7705V35.9435H97.807C98.2817 35.9435 98.5811 35.6351 98.5811 35.1979C98.5811 34.7225 98.2817 34.4131 97.807 34.4131Z" fill="black"/>
<path fill-rule="evenodd" clip-rule="evenodd" d="M113.564 37.2292H114.962L114.288 35.1338L113.564 37.2292Z" fill="black"/>
<path fill-rule="evenodd" clip-rule="evenodd" d="M64.0172 31.6797V40.9656H193.075V31.6797H64.0172ZM72.5499 34.4133H69.9281V35.7886H72.1634V36.7906H69.9281V38.2297H72.5499V39.2317H68.8296V33.4091H72.5499V34.4111V34.4133ZM77.8685 39.2339H74.2102V33.4113H75.2968V38.2308H77.8685V39.2328V39.2339ZM83.0619 34.4133H80.4271V35.7886H82.6623V36.7906H80.4271V38.2297H83.0619V39.2317H79.3416V33.4091H83.0619V34.4111V34.4133ZM87.9809 39.2339L86.5329 36.5731L85.8088 37.4855V39.2339H84.7223V33.4113H85.8088V35.9432L87.8067 33.4113H89.1307L87.258 35.7247L89.2559 39.2339H87.982H87.9809ZM94.1738 34.4133H92.7258V39.2328H91.6141V34.4133H90.128V33.4113H94.1738V34.4133ZM98.6443 39.2339L97.5577 36.9206H96.7716V39.2339H95.66V33.4113H97.8571C99.0058 33.4113 99.7048 34.2206 99.7048 35.1979C99.7048 36.0071 99.2181 36.5092 98.6813 36.7278L99.9171 39.2339H98.6432H98.6443ZM103.575 36.8556V39.2328H102.489V36.8556L100.79 33.4113H102.001L103.024 35.7628L104.086 33.4113H105.26L103.574 36.8556H103.575ZM109.818 39.2339L108.37 36.5731L107.646 37.4855V39.2339H106.535V33.4113H107.646V35.9432L109.606 33.4113H110.967L109.094 35.7247L111.092 39.2339H109.818ZM115.587 39.2339L115.262 38.2061H113.264L112.927 39.2339H111.79L113.813 33.4113H114.687L116.735 39.2339H115.587ZM121.542 39.2339H120.456V33.4113H121.542V39.2339ZM129.482 34.4133H128.034V39.2328H126.923V34.4133H125.462V33.4113H129.481V34.4133H129.482ZM134.677 34.4133H132.08V35.7886H134.316V36.7906H132.08V38.2297H134.677V39.2317H130.994V33.4091H134.677V34.4111V34.4133ZM139.996 39.2339H136.374V33.4113H137.461V38.2308H139.996V39.2328V39.2339ZM145.189 34.4133H142.592V35.7886H144.802V36.7906H142.592V38.2297H145.189V39.2317H141.506V33.4091H145.189V34.4111V34.4133ZM150.483 34.4133H149.021V39.2328H147.91V34.4133H146.462V33.4113H150.481V34.4133H150.483ZM155.677 34.4133H153.08V35.7886H155.278V36.7906H153.08V38.2297H155.677V39.2317H151.994V33.4091H155.677V34.4111V34.4133ZM158.548 37.9865C158.698 38.1792 158.935 38.2689 159.235 38.2689C159.785 38.2689 160.059 37.9472 160.172 37.4462H161.295C161.108 38.641 160.297 39.2967 159.235 39.2967C158.636 39.2967 158.124 39.0781 157.7 38.641C157.451 38.3967 157.3 38.1142 157.238 37.7668C157.188 37.4451 157.151 36.9441 157.151 36.3277C157.151 35.6597 157.188 35.1968 157.238 34.8751C157.3 34.5411 157.451 34.2587 157.7 34.0009C158.125 33.5638 158.636 33.3452 159.235 33.3452C160.322 33.3452 161.108 34.0009 161.295 35.1957H160.172C160.059 34.6947 159.785 34.373 159.235 34.373C158.936 34.373 158.698 34.4761 158.548 34.6554C158.299 34.9121 158.274 35.1957 158.274 36.3266C158.274 37.4574 158.299 37.7018 158.548 37.9842V37.9865ZM166.938 39.2339H165.852V36.7917H163.954V39.2339H162.83V33.4113H163.954V35.7886H165.852V33.4113H166.938V39.2339ZM173.156 39.2339H172.17L169.96 35.6608V39.2339H168.836V33.4113H169.834L172.044 36.9845V33.4113H173.156V39.2339ZM176.152 39.2339H175.066V33.4113H176.152V39.2339ZM181.347 39.2339L179.899 36.5731L179.175 37.4855V39.2339H178.051V33.4113H179.175V35.9432L181.135 33.4113H182.459L180.623 35.7247L182.621 39.2339H181.347ZM187.115 39.2339L186.778 38.2061H184.793L184.43 39.2339H183.282L185.33 33.4113H186.216L188.264 39.2339H187.115Z" fill="black"/>
<path d="M35.1878 21.4377V22.0339C35.1878 23.946 34.9156 25.8256 34.4028 27.6122C35.4306 27.3611 36.3974 27.1101 37.2717 26.859C37.7562 25.1038 38.0262 23.287 38.0262 21.4063C38.0262 21.1238 37.9958 20.8728 37.9958 20.5903L37.937 20.6217C37.0605 20.9042 36.1547 21.1552 35.1878 21.4377Z" fill="black"/>
<path d="M21.2319 30.0883C21.1427 30.0255 21.0207 29.9941 20.8389 29.9941H20.7496C20.5689 30.0255 20.3871 30.1197 20.2956 30.2767C20.1758 30.4336 20.1149 30.6197 20.1454 30.8081C20.2063 31.2162 20.5384 31.4987 20.9304 31.4673C21.1416 31.4359 21.3539 31.3104 21.4736 31.0906C21.5041 30.9965 21.5934 30.8395 21.5651 30.6197C21.5346 30.4022 21.4127 30.2139 21.2319 30.0883Z" fill="black"/>
<path d="M13.6521 23.035C13.4997 22.9095 13.3189 22.8467 13.1371 22.8467C13.1088 22.8467 13.0478 22.8467 13.0173 22.8781C12.7756 22.9095 12.5633 23.035 12.3826 23.2234C12.2323 23.4431 12.1714 23.6943 12.2018 23.9454C12.2323 24.1965 12.3826 24.4454 12.5644 24.6024C12.7756 24.7594 13.0184 24.8221 13.2601 24.7908C13.5312 24.7594 13.7729 24.571 13.9232 24.3199C14.0451 24.1338 14.0734 23.914 14.0451 23.6943C14.0146 23.4431 13.8927 23.192 13.6521 23.035Z" fill="black"/>
<path d="M15.4637 0C13.1686 0 10.9334 0.345208 8.85059 0.941478C10.0885 0.753182 11.358 0.627652 12.6253 0.627652C20.9315 0.627652 28.1805 4.89008 32.0772 11.189C33.0745 10.9066 33.9499 10.5927 34.7349 10.2789C30.7783 4.10552 23.6197 0 15.4637 0Z" fill="black"/>
<path d="M19.2396 42.4675C27.1234 41.2133 33.6168 36.0744 36.4552 29.2095C35.5493 29.4292 34.613 29.6488 33.6473 29.8685C31.1398 35.8861 25.8245 40.5554 19.2396 42.4675Z" fill="black"/>
<path d="M38.4193 5.73501C39.0845 6.23713 39.3861 6.70787 39.3861 7.24025C39.3556 8.46193 37.6648 9.68361 35.0071 10.7495C34.2221 11.0633 33.3446 11.3771 32.3778 11.6596C31.3826 11.9712 30.3548 12.2536 29.2378 12.5361C26.0346 13.3206 22.4112 13.9147 18.8172 14.2912C18.0322 14.3854 17.2156 14.4795 16.1595 14.5423L15.9788 14.5737L15.9178 14.3854C15.5857 13.6658 14.89 13.2265 14.1355 13.2265H13.8938C12.8377 13.3834 12.0821 14.3854 12.2334 15.4827C12.2944 16.0139 12.5655 16.4847 12.9574 16.8299C13.381 17.1437 13.8938 17.3006 14.4077 17.2378C15.2232 17.1123 15.8873 16.4847 16.0376 15.6396L16.068 15.4199H16.2793C17.1252 15.3571 17.9396 15.2944 18.7562 15.2002C22.6529 14.7922 26.3993 14.1646 29.7506 13.3823C30.8371 13.1312 31.8954 12.8802 32.8927 12.5977C33.436 12.4408 33.9793 12.2525 34.5226 12.0956L35.5809 11.719L37.5755 10.9681C40.1112 9.86966 41.531 8.74325 41.531 7.83316C41.5615 7.01945 40.4444 6.29765 38.4193 5.73389V5.73501ZM15.2232 15.9198C15.0119 16.2336 14.6777 16.4533 14.3162 16.516H14.1355C13.8644 16.516 13.5922 16.4219 13.381 16.265C13.1099 16.0453 12.9574 15.7337 12.8987 15.3885C12.8682 15.0433 12.9574 14.6981 13.1698 14.447C13.3505 14.1646 13.6543 13.9763 13.9852 13.9449C14.2868 13.8822 14.62 13.9763 14.8606 14.1646C15.1633 14.3843 15.3451 14.6981 15.4061 15.0747C15.4344 15.3571 15.3756 15.6396 15.2253 15.9198H15.2232Z" fill="black"/>
<path d="M43.9763 21.3433C44.4913 21.7826 44.8528 22.3453 44.8528 22.816C44.8223 24.477 41.6213 26.1392 37.0899 27.455C36.1841 27.7061 35.2477 27.9571 34.2515 28.2082C32.8927 28.5198 31.5024 28.8022 30.0532 29.0533C28.149 29.3985 26.2153 29.6496 24.2839 29.8692C23.8603 29.9006 23.4379 29.9634 23.0144 29.9948L22.6823 30.0262L22.5908 29.8379C22.2588 29.1474 21.5935 28.7092 20.839 28.7092H20.5984C20.0834 28.8034 19.6316 29.0544 19.2984 29.4938C18.9968 29.9331 18.8466 30.4352 18.9358 30.9665C19.0578 32.0963 20.0529 32.8786 21.1112 32.7217C21.9267 32.5962 22.5908 31.9394 22.7432 31.092L22.7716 30.8724H23.1047C23.4673 30.8096 23.8592 30.7782 24.2523 30.7468C26.0335 30.5585 27.7853 30.3097 29.5067 30.0587C31.0179 29.8076 32.467 29.5252 33.8574 29.2427C34.7937 29.0544 35.6691 28.8347 36.5455 28.6464L36.6958 28.5837L39.4449 27.8327C44.156 26.3589 46.9966 24.7292 46.9966 23.382C47.0249 22.5974 45.9383 21.8779 43.9753 21.3455L43.9763 21.3433ZM21.9278 31.3711C21.7165 31.7163 21.3845 31.9674 21.0208 31.9988C20.962 32.0302 20.9011 32.0302 20.8401 32.0302C20.238 32.0302 19.6925 31.528 19.6022 30.9015C19.5717 30.5563 19.661 30.2133 19.8439 29.9309C20.054 29.6484 20.3567 29.4601 20.6888 29.4288C20.9609 29.3974 21.2625 29.4601 21.5042 29.6171C21.8363 29.8367 22.0475 30.1819 22.078 30.5563C22.139 30.8387 22.078 31.1212 21.9278 31.3722V31.3711Z" fill="black"/>
<path d="M42.2245 12.2227C43.1619 12.8503 43.6138 13.4768 43.5833 14.1661C43.5833 15.7028 41.3187 17.2383 37.8139 18.5541C36.969 18.8993 36.0327 19.2131 35.0365 19.527C34.0087 19.8408 32.9221 20.121 31.7745 20.4034C27.8169 21.4077 23.256 22.1586 18.7551 22.6596C17.8492 22.7538 16.8214 22.8479 15.5846 22.9421L15.4039 22.9734L15.3124 22.7851C14.9194 21.8773 14.0734 21.3124 13.1371 21.3124C13.0478 21.3124 12.9258 21.3438 12.8355 21.3438C11.5072 21.5321 10.5708 22.7851 10.7516 24.1335C10.8409 24.8216 11.1751 25.3865 11.6574 25.7945C12.1702 26.2025 12.805 26.3885 13.4397 26.2944C14.4654 26.1711 15.2819 25.3551 15.4932 24.3195L15.5236 24.1335L15.7349 24.1021C16.7322 24.0393 17.7578 23.9452 18.7246 23.851C23.3453 23.3489 27.8169 22.6282 31.8029 21.7204C32.9526 21.4379 34.1001 21.1555 35.1562 20.873C36.0621 20.622 36.9386 20.3709 37.7834 20.0885L37.9642 20.028L41.4983 18.711C44.5795 17.3952 46.3008 16.0155 46.3313 14.8566C46.3313 13.8209 44.8517 12.8817 42.2234 12.2238L42.2245 12.2227ZM14.3772 24.6333C14.1355 25.0099 13.7424 25.261 13.3189 25.3238C13.2601 25.3238 13.1991 25.3551 13.1382 25.3551C12.8061 25.3551 12.5056 25.2296 12.2628 25.0413C11.9307 24.7903 11.75 24.4137 11.689 24.0079C11.628 23.6313 11.75 23.2234 11.9906 22.9107C12.2018 22.5655 12.5644 22.3772 12.9574 22.3144C13.32 22.283 13.6836 22.3772 13.9852 22.5968C14.3173 22.8165 14.5285 23.2245 14.5895 23.6325C14.62 23.9777 14.559 24.3206 14.3783 24.6345L14.3772 24.6333Z" fill="black"/>
<path d="M15.9471 24.6331C15.6445 25.8245 14.6776 26.6696 13.4996 26.8579H13.137C12.474 26.8579 11.8686 26.6382 11.3558 26.2325C10.7211 25.7304 10.328 25.0097 10.2366 24.2251C10.0264 22.5641 11.1435 21.0297 12.744 20.81C13.983 20.6531 15.1306 21.2808 15.7043 22.3769C16.8824 22.2828 17.8187 22.1886 18.7246 22.0967C23.6796 21.5632 28.0586 20.7798 31.7136 19.8719C31.5328 17.7413 30.9286 15.7036 29.9922 13.8846C26.6083 14.6691 22.7726 15.327 18.816 15.735C18.0615 15.8292 17.2754 15.8897 16.5209 15.9525C16.2487 16.9253 15.4322 17.646 14.4664 17.7715C14.3467 17.8029 14.2563 17.8029 14.1343 17.8029C13.5911 17.8029 13.0782 17.6146 12.6547 17.2694C12.1114 16.8301 11.7783 16.2338 11.6879 15.577C11.5072 14.1659 12.4729 12.8814 13.8328 12.6932C14.8301 12.5362 15.7969 13.0697 16.3097 13.9776C17.246 13.9148 18.031 13.8207 18.7562 13.7602C22.5919 13.3522 26.0356 12.7559 28.935 12.0666C26.0661 7.80419 21.2941 5.01562 15.9177 5.01562C7.12814 5.01563 0 12.4107 0 21.5318C0 30.653 7.12815 38.0167 15.9167 38.0167C21.4127 38.0167 26.2763 35.1014 29.1452 30.6507C27.5458 30.9018 25.9442 31.1215 24.2838 31.3098C23.9202 31.3411 23.5881 31.3725 23.2255 31.4039C22.9533 32.3768 22.1673 33.1277 21.1721 33.2532C21.0502 33.2846 20.9609 33.2846 20.839 33.2846C19.6315 33.2846 18.5743 32.3454 18.3925 31.0598C18.3032 30.3716 18.484 29.7126 18.877 29.1477C19.2984 28.6142 19.8721 28.2712 20.5374 28.1771C21.5347 28.0516 22.471 28.5514 22.9838 29.4302C23.4074 29.3988 23.7993 29.3674 24.2228 29.3046C26.3982 29.085 28.4516 28.8025 30.3232 28.4573C31.1692 26.5766 31.682 24.4773 31.7734 22.2839C27.8158 23.1626 23.3758 23.8833 18.7845 24.3832C17.8481 24.4773 16.9118 24.5715 15.9461 24.6342L15.9471 24.6331Z" fill="black"/>
<path d="M14.5274 14.6041C14.4381 14.5413 14.3162 14.4785 14.1344 14.4785H14.0451C13.8644 14.5099 13.6825 14.6041 13.5606 14.761C13.4408 14.918 13.4103 15.1378 13.4408 15.3261C13.4713 15.7342 13.8339 16.0145 14.2258 15.9831C14.4665 15.9517 14.6494 15.8284 14.7691 15.6086C14.8301 15.5145 14.8889 15.3261 14.8584 15.1378C14.8301 14.918 14.7082 14.7297 14.5263 14.6041H14.5274Z" fill="black"/>
<path d="M34.675 12.6303C34.1905 12.7872 33.6472 12.9441 33.1344 13.101C34.0098 14.919 34.6445 16.8927 34.9766 18.9617C35.9739 18.6479 36.9102 18.3341 37.7257 18.0202C37.3926 15.9512 36.7284 14.0089 35.8226 12.1909L34.675 12.6303Z" fill="black"/>
<path d="M76.4476 24.445L70.4365 10.0292L64.395 24.445H60.3469L68.4114 5.2041H72.43L80.4945 24.445H76.4476Z" fill="black"/>
<path d="M101.818 20.5905V24.445H83.272V5.2041H86.9879V20.5905H101.818Z" fill="black"/>
<path d="M244.509 20.5905V24.445H225.963V5.2041H229.679V20.5905H244.509Z" fill="black"/>
<path d="M124.593 20.5905V24.445H112.208C108.1 24.445 106.047 22.3143 106.047 18.0205V11.6286C106.047 7.33475 108.1 5.2041 112.208 5.2041H124.593V9.05856H112.721C110.759 9.05856 109.762 10.0606 109.762 12.1284V17.5195C109.762 19.556 110.759 20.5894 112.751 20.5894H124.593V20.5905Z" fill="black"/>
<path d="M140.541 20.5905C142.595 20.5905 143.653 19.5258 143.653 17.3951V12.254C143.653 10.1222 142.595 9.05856 140.541 9.05856H134.984C133.324 9.05856 132.507 10.1233 132.507 12.254V17.3951C132.507 19.5269 133.533 20.5905 135.619 20.5905H140.541ZM141.176 24.445H134.984C130.876 24.445 128.792 22.3143 128.792 18.0205V11.6286C128.792 7.33475 130.876 5.2041 134.984 5.2041H141.176C145.283 5.2041 147.337 7.33588 147.337 11.6286V18.0205C147.337 22.283 145.283 24.445 141.176 24.445Z" fill="black"/>
<path d="M157.062 16.7357H151.566V12.9127H163.316C165.369 12.9127 166.397 12.2536 166.397 10.9692C166.397 9.68474 165.369 9.05709 163.316 9.05709H151.566V5.20264H163.92C168.057 5.20264 170.112 7.11473 170.112 10.9692C170.112 14.8236 168.057 16.7357 163.92 16.7357H162.773L171.472 24.4446H165.793L157.063 16.7357H157.062Z" fill="black"/>
<path d="M216.368 5.19922H204.007V24.4401H207.728V16.7413H216.367C220.5 16.7413 222.56 14.8258 222.56 10.9703C222.56 7.11468 220.5 5.19922 216.367 5.19922H216.368ZM215.769 12.9104H207.729V9.05479H215.769C217.817 9.05479 218.841 9.68469 218.841 10.9703C218.841 12.2558 217.817 12.9115 215.769 12.9115V12.9104Z" fill="black"/>
<path d="M178.025 11.0323V24.445H174.31V5.2041H178.115L189.171 18.6168V5.2041H192.856V24.445H189.11L178.025 11.0323Z" fill="black"/>
<path d="M200.264 20.5894H196.523V24.4404H200.264V20.5894Z" fill="black"/>
</svg>
