<svg width="162" height="49" viewBox="0 0 162 49" fill="none" xmlns="http://www.w3.org/2000/svg">
<path d="M109.535 33.8513L107.864 29.2746H93.1655L91.4952 33.9643C90.8271 35.8289 90.2703 37.0154 89.7692 37.637C89.2681 38.315 88.5443 38.654 87.4307 38.654C86.3172 38.654 85.7048 38.315 84.981 37.637C84.3128 36.9589 83.9788 36.2244 83.9788 35.3204C83.9788 34.4163 84.0901 34.3033 84.2015 33.7383C84.3685 33.1733 84.6469 32.4953 84.981 31.5347L94.2234 7.80378C94.5018 7.06925 94.7801 6.27822 95.2255 5.31768C95.5596 4.35714 96.005 3.56611 96.3948 2.94459C96.8402 2.32306 97.397 1.81454 98.0094 1.41903C98.7332 1.02351 99.5684 0.854004 100.515 0.854004C101.461 0.854004 102.352 1.02351 103.076 1.41903C103.744 1.81454 104.301 2.32306 104.691 2.94459C105.08 3.50961 105.47 4.18764 105.693 4.92217C106.027 5.60019 106.361 6.56073 106.806 7.69078L116.216 31.3087C116.995 33.0603 117.329 34.3598 117.329 35.2074C117.329 36.0549 116.995 36.8459 116.327 37.524C115.603 38.2585 114.768 38.5975 113.822 38.5975C112.875 38.5975 112.764 38.4845 112.374 38.2585C111.929 38.0325 111.595 37.75 111.316 37.411C111.038 37.0719 110.759 36.5069 110.425 35.7724C110.091 34.9814 109.869 34.3598 109.59 33.7948L109.535 33.8513ZM95.1142 23.6809H105.86L100.459 8.65131L95.1142 23.6809Z" fill="black"/>
<path d="M65.995 25.6581H63.9906V34.8115C63.9906 35.998 63.7122 36.9021 63.2111 37.4671C62.6544 38.0321 61.9862 38.3146 61.1511 38.3146C60.3159 38.3146 59.5364 37.9756 59.0353 37.4106C58.5342 36.8456 58.2559 35.9415 58.2559 34.8115V12.8321C58.2559 11.5891 58.5342 10.685 59.091 10.12C59.6478 9.55497 60.4829 9.27246 61.7635 9.27246H71.0059C72.2308 9.27246 73.3444 9.27246 74.2909 9.44197C75.1817 9.55497 76.0169 9.78098 76.7407 10.12C77.6315 10.459 78.3553 11.024 79.0791 11.7586C79.7473 12.4366 80.304 13.2276 80.5824 14.1882C80.9165 15.1487 81.1392 16.0527 81.1392 17.1828C81.1392 19.2734 80.5824 21.0249 79.3575 22.268C78.1883 23.511 76.4066 24.4151 74.0125 24.9801C75.0147 25.5451 76.0169 26.3361 76.9077 27.4097C77.8542 28.4267 78.6894 29.5568 79.4132 30.7998C80.137 32.0429 80.6938 33.1164 81.0835 34.0204C81.4733 35.0375 81.696 35.659 81.696 35.998C81.696 36.337 81.5846 36.7891 81.3619 37.1281C81.0835 37.5236 80.8051 37.8061 80.3597 38.0321C79.97 38.2016 79.4689 38.3711 78.9678 38.3711C78.4667 38.3711 77.7429 38.2016 77.3531 37.9191C76.9634 37.5801 76.5737 37.1846 76.2396 36.7326C75.9055 36.2805 75.5158 35.546 74.959 34.642L72.6763 30.7998C71.8411 29.3873 71.1173 28.2572 70.4492 27.5792C69.8367 26.7882 69.1686 26.3361 68.5005 26.0536C67.8323 25.7711 66.9972 25.6581 65.995 25.6581ZM69.2243 13.7361H63.9906V21.5899H69.0572C70.4492 21.5899 71.5627 21.4769 72.5092 21.2509C73.4557 21.0249 74.1239 20.6294 74.6806 20.0079C75.1817 19.4429 75.4044 18.5953 75.4044 17.6348C75.4044 16.6743 75.2374 16.1657 74.8477 15.5442C74.4579 14.9792 73.9011 14.5272 73.233 14.1882C72.5649 13.9056 71.2286 13.7926 69.2799 13.7926L69.2243 13.7361Z" fill="black"/>
<path d="M39.604 8.8773C42.4992 8.8773 45.0047 9.44233 47.1204 10.6289C49.1805 11.8719 50.7951 13.567 51.853 15.7706C52.9109 17.9742 53.4676 20.5733 53.4676 23.5679C53.4676 26.5625 53.1892 27.8056 52.5768 29.6136C52.02 31.4217 51.1292 33.0038 49.96 34.3033C48.7351 35.6029 47.3431 36.6199 45.6171 37.3544C43.8911 38.0325 41.9424 38.3715 39.7154 38.3715C37.4883 38.3715 35.5396 38.0325 33.8136 37.2979C32.0876 36.5634 30.64 35.5464 29.4708 34.2468C28.3015 32.9473 27.4107 31.3652 26.7982 29.5006C26.2415 27.636 25.9074 25.6585 25.9074 23.5114C25.9074 21.3643 26.2415 19.3302 26.8539 17.4656C27.4664 15.6576 28.4129 14.0755 29.5821 12.8325C30.807 11.5329 32.1989 10.5159 33.8692 9.83784C35.5396 9.15981 37.4883 8.8208 39.6597 8.8208L39.604 8.8773ZM47.6772 23.5114C47.6772 21.4208 47.3431 19.6127 46.675 18.0872C45.9512 16.5616 45.0604 15.3751 43.7798 14.584C42.5549 13.793 41.163 13.3975 39.5483 13.3975C37.9337 13.3975 37.3212 13.6235 36.3747 14.0755C35.3725 14.5275 34.5374 15.1491 33.8692 15.9401C33.2011 16.7311 32.6444 17.8047 32.2546 19.1607C31.8649 20.4038 31.6978 21.9293 31.6978 23.4549C31.6978 24.9804 31.8649 26.5625 32.2546 27.8621C32.6444 29.1616 33.2568 30.2917 33.9806 31.1392C34.7044 31.9867 35.5396 32.6082 36.4861 33.0603C37.4326 33.4558 38.4905 33.6818 39.604 33.6818C40.7175 33.6818 42.3879 33.3428 43.6128 32.5517C44.8377 31.8172 45.7842 30.6872 46.5636 29.1051C47.2875 27.5795 47.6215 25.6585 47.6215 23.3984L47.6772 23.5114Z" fill="black"/>
<path d="M55.9731 7.12532H7.81231V16.4482H19.8386C20.9521 16.4482 21.7873 16.7307 22.3441 17.2392C22.9008 17.8042 23.1792 18.4823 23.1792 19.2733C23.1792 20.0643 22.9008 20.7989 22.3441 21.3074C21.7873 21.8724 20.9521 22.0984 19.8386 22.0984H7.81231V34.1334C7.81231 35.659 7.47825 36.789 6.81013 37.5235C6.142 38.3146 5.25116 38.6536 4.1933 38.6536C3.13543 38.6536 2.2446 38.3146 1.57647 37.5235C0.852666 36.7325 0.57428 35.659 0.57428 34.1334V5.93877C0.57428 4.92173 0.685635 4.0742 1.0197 3.39617C1.35376 2.71815 1.79918 2.20963 2.4673 1.92712C3.13543 1.5881 3.97059 1.4751 4.97278 1.4751H61.5408L55.9174 7.18182L55.9731 7.12532Z" fill="black"/>
<path d="M86.5955 7.12567H57.8661L63.4895 1.41895H86.5955C87.7647 1.41895 88.5999 1.64495 89.1567 2.20998C89.7134 2.775 89.9918 3.45303 89.9918 4.30056C89.9918 5.14809 89.7134 5.88262 89.1567 6.39114C88.5999 6.95617 87.7647 7.18217 86.5955 7.18217V7.12567Z" fill="black"/>
<path d="M115.548 48.0898V42.27H116.717V48.0898H115.548Z" fill="black"/>
<path d="M107.307 48.0898V42.27H108.532V44.8126L110.871 42.27H112.43L110.258 44.4736L112.541 48.0898H111.038L109.423 45.3776L108.532 46.3382V48.0898H107.307Z" fill="black"/>
<path d="M99.1229 46.225L100.292 46.112C100.292 46.5076 100.515 46.7901 100.682 46.9596C100.905 47.1291 101.183 47.2421 101.517 47.2421C101.851 47.2421 102.185 47.1291 102.352 47.0161C102.575 46.8466 102.686 46.6771 102.686 46.451C102.686 46.225 102.686 46.1685 102.575 46.112C102.464 45.999 102.352 45.9425 102.185 45.886C102.074 45.886 101.74 45.773 101.239 45.6035C100.626 45.434 100.181 45.2645 99.9024 45.0385C99.5683 44.6995 99.3456 44.304 99.3456 43.8519C99.3456 43.3999 99.457 43.2869 99.624 43.0044C99.7911 42.7219 100.014 42.5524 100.348 42.4394C100.682 42.3264 101.072 42.2134 101.517 42.2134C102.241 42.2134 102.742 42.3829 103.132 42.7219C103.521 43.0609 103.688 43.5129 103.688 44.0215H102.519C102.519 43.7389 102.352 43.5129 102.185 43.4564C102.018 43.3434 101.795 43.2304 101.406 43.2304C101.016 43.2304 100.849 43.3434 100.626 43.4564C100.515 43.5694 100.459 43.6824 100.459 43.7954C100.459 43.9084 100.571 44.078 100.626 44.1345C100.738 44.2475 101.183 44.417 101.684 44.53C102.241 44.643 102.686 44.8125 102.965 44.9255C103.243 45.0385 103.41 45.2645 103.577 45.4905C103.688 45.773 103.8 46.0555 103.8 46.451C103.8 46.8466 103.688 47.0726 103.521 47.4116C103.354 47.6941 103.076 47.9201 102.742 48.0331C102.408 48.2026 101.962 48.2591 101.517 48.2591C100.793 48.2591 100.236 48.0896 99.8467 47.7506C99.457 47.4116 99.2343 46.9031 99.1229 46.2815V46.225Z" fill="black"/>
<path d="M92.8871 41.7051L93.4439 40.5186H94.6688L93.5552 41.7051H92.8871Z" fill="black"/>
<path d="M91.1611 48.0898V42.27H92.3303L94.6687 46.1687V42.27H95.7823V48.0898H94.6131L92.2746 44.2476V48.0898H91.1611Z" fill="black"/>
<path d="M86.4285 48.0898V42.27H87.5977V48.0898H86.4285Z" fill="black"/>
<path d="M78.1883 42.27H80.4711C80.9165 42.27 81.2506 42.27 81.4733 42.27C81.696 42.27 81.863 42.383 82.03 42.496C82.1971 42.609 82.3641 42.835 82.4755 43.0046C82.5868 43.2306 82.6425 43.4566 82.6425 43.6826C82.6425 43.9086 82.6425 44.2476 82.4198 44.4736C82.3084 44.6996 82.0857 44.8691 81.863 45.0386C82.1971 45.1516 82.4755 45.3211 82.6425 45.5472C82.8652 45.8297 82.9765 46.1122 82.9765 46.4512C82.9765 46.7902 82.8652 47.0162 82.8095 47.2422C82.6982 47.5247 82.4755 47.6942 82.2527 47.8637C82.0857 47.9767 81.8073 48.0898 81.4733 48.1463C81.2506 48.1463 80.8051 48.1463 80.0813 48.1463H78.1326V42.27H78.1883ZM79.3575 43.1741V44.5301H80.9722C81.1949 44.5301 81.3062 44.4171 81.4733 44.3041C81.5846 44.1911 81.6403 44.0216 81.6403 43.8521C81.6403 43.6826 81.6403 43.5131 81.4733 43.4001C81.3619 43.2871 81.2506 43.2306 81.0278 43.2306C80.9165 43.2306 80.5824 43.2306 80.0257 43.2306H79.3575V43.1741ZM79.3575 45.5472V47.1292H80.4154C80.8608 47.1292 81.1392 47.1292 81.1949 47.1292C81.3619 47.1292 81.5289 47.0162 81.6403 46.9032C81.7516 46.7902 81.8073 46.5642 81.8073 46.3947C81.8073 46.2252 81.8073 46.0557 81.696 45.9427C81.5846 45.8297 81.4733 45.7167 81.3619 45.6602C81.1949 45.6602 80.8051 45.5472 80.304 45.5472H79.3575Z" fill="black"/>
<path d="M75.1261 48.0896H73.9012L73.3444 46.7336H71.0616L70.5605 48.0896H69.3356L71.5627 42.2134H72.7876L75.0704 48.0896H75.1261ZM73.0103 45.773L72.2309 43.6259L71.4514 45.773H73.066H73.0103Z" fill="black"/>
<path d="M61.6522 48.0896V42.2134H64.102C64.7144 42.2134 65.1598 42.2134 65.4939 42.3264C65.7723 42.4394 65.995 42.6654 66.162 42.8914C66.329 43.1739 66.4404 43.4564 66.4404 43.7954C66.4404 44.1345 66.329 44.5865 66.0507 44.869C65.7723 45.208 65.4382 45.3775 64.8814 45.434C65.1598 45.6035 65.3825 45.773 65.4939 45.9425C65.6609 46.112 65.8836 46.451 66.162 46.9031L66.8858 48.0896H65.4939L64.6587 46.7901C64.3247 46.338 64.102 46.0555 64.0463 45.9425C63.9349 45.8295 63.8236 45.773 63.7122 45.7165C63.6009 45.7165 63.3782 45.7165 63.1554 45.7165H62.8771V48.1461H61.7078L61.6522 48.0896ZM62.7657 44.6995H63.6565C64.2133 44.6995 64.5474 44.6995 64.6587 44.5865C64.8258 44.5865 64.9371 44.4735 64.9928 44.3605C65.1042 44.2475 65.1041 44.078 65.1041 43.9084C65.1041 43.7389 65.1042 43.5694 64.9928 43.3999C64.8814 43.2869 64.7144 43.2304 64.5474 43.1739H62.7657V44.643V44.6995Z" fill="black"/>
<path d="M39.8824 48.0898V42.27H41.0516L43.3901 46.1687V42.27H44.5036V48.0898H43.3344L40.9403 44.2476V48.0898H39.8824Z" fill="black"/>
<path d="M36.8202 48.0896H35.5396L35.0385 46.7336H32.7557L32.2546 48.0896H31.0297L33.3125 42.2134H34.5374L36.8758 48.0896H36.8202ZM34.6487 45.773L33.8693 43.6259L33.0898 45.773H34.6487Z" fill="black"/>
<path d="M26.8539 48.0898V42.27H28.0788V48.0898H26.8539Z" fill="black"/>
<path d="M17.7229 48.0898V42.27H19.4489L20.5067 46.2252L21.5646 42.27H23.2906V48.0898H22.177V43.4566L21.0635 48.0898H19.95L18.7807 43.4566V48.0898H17.7229Z" fill="black"/>
<path d="M14.6606 48.0896H13.38L12.8789 46.7336H10.5962L10.0951 48.0896H8.87018L11.1529 42.2134H12.3778L14.6606 48.0896ZM12.5449 45.773L11.7654 43.6259L10.9859 45.773H12.6006H12.5449Z" fill="black"/>
<path d="M1.18674 42.27H3.30247C3.74789 42.27 4.13763 42.27 4.36034 42.383C4.6944 42.496 5.02846 42.6655 5.25117 42.948C5.47388 43.2306 5.69659 43.5131 5.80794 43.9086C5.9193 44.3041 6.03065 44.7561 6.03065 45.3211C6.03065 45.8862 5.9193 46.2252 5.86362 46.5642C5.69659 46.9597 5.52956 47.3552 5.25117 47.5812C5.02846 47.7507 4.75008 47.9202 4.41601 48.0333C4.19331 48.1463 3.85924 48.1463 3.41382 48.1463H1.24241V42.27H1.18674ZM2.35596 43.2306V47.1292H3.24679C3.58086 47.1292 3.80356 47.1292 3.91492 47.1292C4.13763 47.1292 4.24898 47.0162 4.41601 46.8467C4.52737 46.7337 4.63872 46.5077 4.75008 46.2817C4.86143 45.9992 4.86143 45.6602 4.86143 45.2081C4.86143 44.7561 4.86143 44.4171 4.75008 44.1911C4.63872 43.9086 4.58305 43.7391 4.41601 43.6261C4.30466 43.5131 4.08195 43.4001 3.85924 43.3436C3.74789 43.3436 3.41382 43.3436 2.91273 43.3436H2.35596V43.2306Z" fill="black"/>
<path fill-rule="evenodd" clip-rule="evenodd" d="M121.617 18.2564L128.632 14.1882L146.17 3.90479L150.235 11.0241L132.696 21.251L138.765 31.9299L131.75 36.0546L121.617 18.2564Z" fill="black"/>
<path fill-rule="evenodd" clip-rule="evenodd" d="M136.928 45.1516L132.863 38.0323L150.402 27.6924L144.333 17.07L151.348 12.9453L161.481 30.7435L154.466 34.8682L136.928 45.1516Z" fill="black"/>
</svg>
